<svg aria-hidden="true" style="position:absolute;width:0;height:0" xmlns="http://www.w3.org/2000/svg" overflow="hidden"><defs><symbol id="icon-mail-send" viewBox="0 0 32 32"><path fill="var(--color1, #fff)" d="M32 0L0 18l10.227 3.788L26 7 14.002 23.186l.01.004-.012-.004V32l5.735-6.691L27 28l5-28z"/></symbol><symbol id="icon-client-1" viewBox="0 0 60 32"><path d="M24.533 7.111l2.598 2.46h7.248v6.861l2.598 2.46V7.111H24.533z"/><path d="M22.4 9.467v11.444h12.089v-4.549L27.208 9.47 22.4 9.467zm9.786 9.771h-7.873v-7.697h.556v7.176h7.317v.521zM25.881 23.034l.291-.599h.243l-.424.799v.465h-.22v-.465l-.424-.799h.244l.291.599zm1.249.371h-.49l-.102.294h-.228l.477-1.264h.197l.478 1.264h-.229l-.103-.294zm-.428-.177h.366l-.183-.524-.183.524zm1.293.13c0-.058.016-.112.048-.161s.095-.107.188-.174c-.049-.062-.084-.115-.103-.158s-.029-.085-.029-.126c0-.099.03-.177.09-.234s.141-.087.243-.087c.092 0 .167.027.226.082s.089.121.089.201c0 .053-.013.101-.04.146s-.07.088-.131.132l-.086.063.244.288a.508.508 0 00.053-.232h.183a.632.632 0 01-.109.383l.186.22h-.245l-.071-.084c-.09.068-.198.102-.323.102s-.225-.033-.3-.099a.331.331 0 01-.112-.26zm.418.19a.326.326 0 00.2-.071l-.276-.326-.027.019c-.069.053-.104.113-.104.181 0 .058.019.106.056.142s.088.055.151.055zm-.116-.814c0 .049.03.11.089.183l.096-.066.027-.022a.157.157 0 00.054-.122c0-.033-.012-.061-.037-.084s-.056-.036-.095-.036c-.041 0-.074.014-.098.042s-.036.063-.036.105zm2.296.554c-.013.135-.063.24-.149.316s-.202.113-.346.113a.46.46 0 01-.444-.275.733.733 0 01-.065-.306v-.118c0-.119.021-.224.063-.315a.478.478 0 01.455-.284c.14 0 .252.038.337.114s.135.183.148.321h-.219c-.01-.091-.037-.156-.08-.196s-.104-.061-.187-.061c-.095 0-.169.035-.22.105s-.077.172-.078.306v.112c0 .137.024.241.073.313s.121.108.215.108c.086 0 .151-.019.194-.058s.071-.103.082-.194h.219zm1.206-.188c0 .124-.021.233-.064.326a.486.486 0 01-.458.29c-.102 0-.194-.025-.274-.075s-.142-.122-.186-.214a.768.768 0 01-.066-.32v-.071c0-.123.022-.232.065-.326a.492.492 0 01.459-.292.5.5 0 01.273.075c.08.049.142.12.185.213s.065.201.066.324v.07zm-.22-.066c0-.14-.027-.247-.08-.322s-.128-.112-.225-.112c-.095 0-.169.037-.223.112s-.08.179-.082.315v.073c0 .139.027.246.081.322s.13.114.226.114c.097 0 .172-.037.224-.111s.079-.182.079-.325v-.066z"/></symbol><symbol id="icon-client-2" viewBox="0 0 60 32"><path d="M29.147 7.799h.049c.09 0 .187.009.283.017.424.03.845.093 1.259.19V6.988a7.506 7.506 0 00-1.3-.207 9.488 9.488 0 00-.525-.025h-.152c-.88.003-1.756.116-2.608.336-.971.242-1.902.621-2.768 1.126v10.097a11.224 11.224 0 012.638-1.028 11.508 11.508 0 012.214-.34h.03c.125-.006.25-.01.379-.011v-1.034c-.971.012-1.937.141-2.878.382-.348.09-.684.188-1 .297l-.36.122V8.831l.154-.074a10.057 10.057 0 013.771-.954c.143-.007.287-.011.428-.011h.162c.075.002.149.004.224.008z"/><path d="M31.684 8.865a9.303 9.303 0 01-1.506-.122 8.306 8.306 0 01-.47-.095v9.981c.647.16 1.312.239 1.979.233a10.67 10.67 0 002.608-.335 10.57 10.57 0 002.769-1.126V7.484c-.833.452-1.719.798-2.637 1.029-.896.23-1.817.348-2.742.352zm3.991.173l.36-.121v7.875l-.154.074a9.865 9.865 0 01-1.839.661 9.59 9.59 0 01-2.354.305 8.1 8.1 0 01-.702-.03l-.246-.022V9.682l.287.019c.209.014.425.02.659.02a12.206 12.206 0 002.989-.383c.336-.089.669-.188 1-.299zM24.084 21.764a.53.53 0 00-.4-.162.607.607 0 00-.231.043.515.515 0 00-.296.299.588.588 0 00-.041.223v1.349a.643.643 0 00.053.277.482.482 0 00.32.277.762.762 0 00.201.028.56.56 0 00.516-.353.53.53 0 00.043-.215v-.151h-.353v.12a.307.307 0 01-.021.12.221.221 0 01-.051.076.268.268 0 01-.148.052.182.182 0 01-.165-.073.319.319 0 01-.047-.181v-1.258a.44.44 0 01.043-.202c.018-.028.044-.051.075-.066s.064-.02.098-.016c.03-.001.061.005.088.018s.051.033.069.057c.039.052.06.116.058.181v.117h.349v-.137a.633.633 0 00-.161-.426zM26.179 21.749a.626.626 0 00-.401-.148.6.6 0 00-.396.148.56.56 0 00-.137.189.617.617 0 00-.051.261v1.294a.636.636 0 00.051.265.53.53 0 00.137.181.55.55 0 00.186.114.604.604 0 00.611-.114.542.542 0 00.133-.181.62.62 0 00.051-.265v-1.294a.584.584 0 00-.184-.45zm-.164 1.744a.236.236 0 01-.07.188.258.258 0 01-.332 0 .236.236 0 01-.07-.188v-1.294a.236.236 0 01.07-.188.258.258 0 01.332 0 .236.236 0 01.07.188v1.294zM28.931 24.071v-2.449h-.339l-.445 1.297h-.006l-.449-1.297h-.335v2.449h.35v-1.49h.006l.343 1.053h.174l.345-1.053h.006v1.49h.35zM30.918 21.793a.498.498 0 00-.198-.134.783.783 0 00-.254-.038h-.52v2.449h.349v-.957h.18a.638.638 0 00.315-.067.522.522 0 00.192-.187.586.586 0 00.08-.213c.014-.092.02-.185.019-.278a1.42 1.42 0 00-.034-.35.519.519 0 00-.129-.225zm-.18.747a.336.336 0 01-.032.128.197.197 0 01-.09.086.36.36 0 01-.165.031h-.159v-.833h.18a.327.327 0 01.157.031.199.199 0 01.082.09.375.375 0 01.031.137v.163c0 .057.004.116 0 .168h-.004zM32.572 21.622h-.286l-.54 2.449h.349l.103-.526h.476l.103.526h.349l-.553-2.449zm-.322 1.589l.172-.888h.006l.171.888h-.349zM34.827 23.097h-.006l-.527-1.476h-.335v2.449h.349v-1.473h.007l.533 1.473h.328v-2.449h-.349v1.476zM36.959 21.622l-.281.974h-.007l-.281-.974h-.37l.479 1.414v1.035h.349v-1.035l.479-1.414h-.369zM23.111 24.762h.168v.472h.114v-.472h.167v-.097h-.45v.097zM24.525 24.666l-.22.569h.121l.047-.129h.227l.049.129h.124l-.226-.569h-.121zm-.018.343l.077-.211.077.211h-.155zM25.923 25.025h.131v.073a.214.214 0 01-.135.048c-.023.001-.046-.003-.067-.012s-.039-.024-.054-.042a.237.237 0 01-.042-.148c0-.127.055-.19.164-.19.029-.003.057.005.081.021s.041.041.048.069l.112-.022c-.024-.111-.104-.167-.241-.167a.287.287 0 00-.199.073.275.275 0 00-.082.218.31.31 0 00.073.213c.028.029.062.051.099.065s.077.02.117.018a.342.342 0 00.241-.09v-.224h-.246v.096zM27.35 24.666h-.115v.569h.398v-.097h-.283v-.472zM28.557 24.666h-.115v.569h.115v-.569zM29.737 25.046l-.233-.38h-.112v.569h.107v-.372l.228.372h.114v-.569h-.105v.38zM30.804 24.984h.283v-.097h-.283v-.125h.305v-.097h-.42v.569h.432v-.097h-.317v-.154zM33.391 24.89h-.224v-.224h-.114v.569h.114v-.249h.224v.249h.114v-.569h-.114v.224zM34.464 24.984h.284v-.097h-.284v-.125h.306v-.097h-.42v.569h.431v-.097h-.317v-.154zM35.919 24.984c.099-.015.149-.068.149-.158.003-.024-.001-.049-.011-.071s-.025-.041-.045-.056a.32.32 0 00-.166-.033h-.241v.569h.114v-.238h.022a.145.145 0 01.071.013c.017.01.031.025.041.042l.124.181h.137l-.069-.111a.404.404 0 00-.126-.137zm-.115-.079h-.084v-.143h.09a.285.285 0 01.116.014c.008.007.015.017.019.027s.006.021.006.032a.073.073 0 01-.031.057.327.327 0 01-.116.014zM37.017 24.984h.283v-.097h-.283v-.125h.306v-.097h-.421v.569h.432v-.097h-.317v-.154z"/></symbol><symbol id="icon-client-3" viewBox="0 0 60 32"><path d="M25.367 23.394c.005 0 .011.001.015.003s.009.005.013.009l.073.077a.604.604 0 01-.206.146.727.727 0 01-.292.052.711.711 0 01-.274-.049.592.592 0 01-.341-.351.773.773 0 01-.047-.273.739.739 0 01.05-.274.642.642 0 01.142-.213.654.654 0 01.22-.139.799.799 0 01.283-.049.704.704 0 01.262.044c.072.03.139.072.197.123l-.061.082a.057.057 0 01-.016.015c-.007.005-.016.007-.025.006s-.019-.004-.027-.009l-.033-.022-.046-.028a.597.597 0 00-.253-.058.537.537 0 00-.203.037.454.454 0 00-.262.267.615.615 0 00-.038.216.614.614 0 00.038.22c.022.06.057.116.102.163a.414.414 0 00.152.101c.06.024.124.035.188.035a.702.702 0 00.112-.007.42.42 0 00.241-.112.05.05 0 01.035-.014zM27.48 23.008a.742.742 0 01-.049.271c-.03.079-.077.15-.138.21s-.135.107-.216.138a.817.817 0 01-.556 0 .627.627 0 01-.354-.352.77.77 0 010-.543.623.623 0 01.139-.213.627.627 0 01.215-.133.805.805 0 01.556 0 .609.609 0 01.354.349.71.71 0 01.049.273zm-.192 0a.623.623 0 00-.035-.218.43.43 0 00-.253-.266.585.585 0 00-.404 0 .43.43 0 00-.254.266.692.692 0 000 .436.45.45 0 00.099.163.44.44 0 00.155.102c.13.046.274.046.404 0a.427.427 0 00.253-.265.623.623 0 00.035-.218zM28.921 23.237l.019.049a2.405 2.405 0 01.045-.097l.467-.809c.009-.014.017-.023.027-.025a.097.097 0 01.038-.004h.138v1.316h-.164v-.968-.041-.045l-.47.821c-.006.012-.016.023-.028.03s-.026.011-.04.011h-.027c-.014 0-.028-.004-.04-.011s-.022-.018-.027-.03l-.484-.826v1.057h-.158v-1.314h.138a.12.12 0 01.038.004c.011.005.02.014.026.025l.477.81a.416.416 0 01.024.047zM30.68 23.171v.493h-.183v-1.315h.408a.797.797 0 01.228.029.44.44 0 01.161.082.33.33 0 01.091.129.424.424 0 01.031.168.373.373 0 01-.133.3.446.446 0 01-.162.087.684.684 0 01-.22.03l-.221-.003zm0-.141h.221a.456.456 0 00.142-.02.277.277 0 00.102-.057.232.232 0 00.062-.087.282.282 0 00.022-.111.244.244 0 00-.082-.197.371.371 0 00-.246-.071h-.221v.542zM33.138 23.666h-.145a.07.07 0 01-.04-.012.086.086 0 01-.024-.03l-.124-.318h-.625l-.129.318a.076.076 0 01-.023.03.061.061 0 01-.041.013h-.145l.549-1.317h.19l.556 1.317zm-.905-.489h.516l-.218-.536a.9.9 0 01-.041-.124l-.021.069c-.006.021-.014.04-.02.056l-.216.535zM33.928 22.356c.011.006.02.014.027.024l.8.992v-.046V22.35h.164v1.317h-.091c-.013 0-.026-.002-.037-.008s-.021-.015-.029-.024l-.799-.992v.045.978h-.164v-1.317h.097c.011 0 .023.002.033.006zM36.268 23.143v.523h-.183v-.523l-.506-.793h.164a.06.06 0 01.039.011c.01.008.018.018.025.03l.316.512a.765.765 0 01.056.117l.024-.057a.425.425 0 01.031-.06l.312-.515a.127.127 0 01.024-.028.056.056 0 01.039-.013h.166l-.507.796zM28.831 20.14c.08.01.16.017.241.024 1.234-.526 2.278-1.387 3.001-2.475s1.094-2.355 1.066-3.643l-1.36-1.296c.276 1.371.147 2.788-.374 4.093s-1.412 2.446-2.575 3.296z"/><path d="M28.345 20.08l.037.007c1.242-.847 2.19-2.029 2.719-3.394s.617-2.85.251-4.263l-1.937-1.845c.783 1.517 1.099 3.215.909 4.895s-.876 3.276-1.979 4.6zM34.914 15.568a6.683 6.683 0 01-2.279 3.639 7.271 7.271 0 01-1.083.741c.937-.262 1.798-.726 2.517-1.356s1.277-1.408 1.63-2.276l-.786-.748z"/><path d="M34.606 15.36l-1.118-1.066c-.021 1.215-.384 2.402-1.05 3.438s-1.611 1.884-2.737 2.454h.006c.251 0 .502-.014.751-.043 1.052-.409 1.982-1.06 2.706-1.895s1.22-1.827 1.443-2.889zM28.507 9.806l-1.334-1.273c-1.193.439-2.219 1.211-2.943 2.215s-1.114 2.193-1.118 3.411c.004 1.346.48 2.653 1.352 3.712s2.089 1.812 3.46 2.139c1.224-1.421 1.94-3.176 2.045-5.011s-.407-3.654-1.461-5.193zM37.689 15.164c-.005-1.597-.673-3.128-1.858-4.257s-2.792-1.766-4.468-1.771a6.51 6.51 0 00-2.265.402l8.17 7.783a5.72 5.72 0 00.422-2.157z"/></symbol><symbol id="icon-client-4" viewBox="0 0 60 32"><path d="M20.41 13.095h-.001c-.804 0-1.456.635-1.456 1.419v.001c0 .784.652 1.419 1.456 1.419h.001c.804 0 1.456-.635 1.456-1.419v-.001c0-.784-.652-1.419-1.456-1.419zM31.16 12.642c-.002-1.089-.447-2.132-1.237-2.902s-1.861-1.204-2.978-1.206c-1.118.002-2.189.435-2.979 1.205s-1.235 1.814-1.238 2.903v6.004s8.43-.915 8.431-6.003v-.001zM16 20.616c.002.758.312 1.484.861 2.019s1.294.838 2.072.84c.777-.002 1.522-.304 2.071-.84s.859-1.261.862-2.019v-4.178S16 17.075 16 20.615zm2.933.748c-.152 0-.3-.044-.427-.126a.746.746 0 01-.327-.768c.03-.145.103-.279.21-.383a.778.778 0 011.182.114.73.73 0 01.071.703.766.766 0 01-.711.464v-.003zM24.921 20.9h-.6v.62h-.313v-1.517h.988v.253h-.675v.392h.6v.252zm1.502-.104c0 .149-.026.28-.079.393s-.128.199-.227.26a.624.624 0 01-.337.092c-.126 0-.238-.03-.336-.091s-.175-.147-.229-.258a.889.889 0 01-.082-.388v-.075c0-.149.027-.281.08-.394a.595.595 0 01.565-.353.62.62 0 01.336.092c.099.06.175.148.228.261s.081.244.081.393v.068zm-.317-.069c0-.159-.028-.28-.085-.363s-.138-.124-.244-.124c-.105 0-.186.041-.243.123s-.086.201-.086.358v.074c0 .155.028.275.085.36s.139.128.246.128c.105 0 .185-.041.242-.123s.085-.203.085-.36v-.074zm1.33.395c0-.059-.021-.104-.063-.135s-.117-.065-.225-.1a1.588 1.588 0 01-.257-.104c-.172-.093-.258-.218-.258-.376 0-.082.023-.155.069-.219s.113-.115.199-.151c.087-.036.184-.054.292-.054s.205.02.29.059a.436.436 0 01.268.41h-.313c0-.069-.022-.123-.066-.161s-.105-.058-.184-.058c-.076 0-.136.016-.178.049s-.064.074-.064.127c0 .049.025.091.074.124s.123.065.22.094c.178.053.307.12.389.199s.122.178.122.296c0 .131-.05.234-.149.309s-.233.111-.401.111c-.117 0-.223-.021-.319-.064s-.169-.102-.22-.176a.45.45 0 01-.075-.258h.314c0 .167.1.251.3.251.074 0 .132-.015.174-.045s.063-.073.063-.127zm1.668-.866h-.465v1.264h-.313v-1.264h-.458v-.253h1.235v.253zm1.092.607h-.6v.406h.704v.251h-1.017v-1.517h1.015v.253h-.702v.361h.6v.245zm.848.102h-.249v.555h-.313v-1.517h.564c.179 0 .317.04.415.12s.146.193.146.339c0 .103-.023.19-.068.259s-.112.124-.203.165l.328.62v.015h-.335l-.284-.555zm-.248-.254h.252c.078 0 .139-.02.182-.059s.065-.096.065-.166c0-.072-.02-.128-.061-.169s-.102-.061-.186-.061h-.251v.455zm1.893.274v.534h-.313v-1.517h.592c.114 0 .214.021.3.063a.463.463 0 01.27.439c0 .149-.051.266-.153.352s-.242.128-.422.128h-.274zm0-.253h.279c.083 0 .145-.019.189-.058s.066-.094.066-.167c0-.074-.022-.134-.066-.18s-.104-.069-.181-.071h-.286v.476zm1.977.131h-.6v.406h.704v.251h-1.017v-1.517h1.015v.253h-.702v.361h.6v.245zm1.45-.607h-.464v1.264h-.313v-1.264h-.458v-.253h1.235v.253zm1.092.607h-.6v.406h.704v.251h-1.017v-1.517h1.015v.253h-.702v.361h.6v.245zm.849.102h-.249v.555h-.313v-1.517h.564c.179 0 .318.04.415.12s.146.193.146.339c0 .103-.022.19-.068.259s-.112.124-.203.165l.328.62v.015h-.336l-.284-.555zm-.249-.254h.252c.079 0 .139-.02.182-.059s.065-.096.065-.166c0-.072-.021-.128-.062-.169s-.102-.061-.187-.061h-.251v.455zm1.836.411c0-.059-.021-.104-.063-.135s-.117-.065-.225-.1a1.588 1.588 0 01-.257-.104c-.172-.093-.258-.218-.258-.376 0-.082.023-.155.069-.219s.113-.115.199-.151c.087-.036.184-.054.292-.054s.205.02.289.059a.436.436 0 01.268.41h-.313c0-.069-.022-.123-.065-.161s-.105-.058-.185-.058c-.076 0-.136.016-.178.049s-.064.074-.064.127c0 .049.025.091.074.124.05.033.123.065.22.094.178.053.307.12.388.199s.122.178.122.296c0 .131-.05.234-.149.309s-.233.111-.401.111c-.117 0-.223-.021-.319-.064s-.169-.102-.22-.176a.45.45 0 01-.075-.258h.313c0 .167.1.251.3.251.074 0 .132-.015.174-.045s.063-.073.063-.127z"/></symbol><symbol id="icon-client-5" viewBox="0 0 60 32"><path d="M21.507 21.788a.559.559 0 01.123.359.576.576 0 01-.191.454.829.829 0 01-.554.166h-.974V20.49h.954a.814.814 0 01.529.151.515.515 0 01.185.426.526.526 0 01-.111.348.52.52 0 01-.29.178.555.555 0 01.329.195zm-1.143-.344h.408a.381.381 0 00.259-.076.274.274 0 00.088-.223.277.277 0 00-.086-.223.394.394 0 00-.267-.077h-.401v.597zm.707.873a.286.286 0 00.096-.231.284.284 0 00-.098-.233.418.418 0 00-.277-.082h-.428v.626h.433a.426.426 0 00.274-.079zM23.457 22.767l-.531-.89h-.199v.89h-.456V20.49h.864a.85.85 0 01.602.194.732.732 0 01.064.942.699.699 0 01-.412.231l.565.91h-.496zm-.73-1.201h.373c.259 0 .389-.115.389-.345.003-.047-.004-.094-.021-.138s-.042-.084-.074-.118a.402.402 0 00-.294-.092h-.378l.004.693zM25.952 22.308h-.91l-.161.458h-.479l.835-2.252h.517l.832 2.252h-.479l-.157-.458zm-.122-.345l-.332-.961-.332.961h.665zM29.076 22.767h-.453l-1.016-1.549v1.549h-.452V20.49h.452l1.016 1.558V20.49h.453v2.277zM31.662 22.222a.98.98 0 01-.41.402 1.34 1.34 0 01-.637.144h-.807v-2.277h.807c.221-.006.439.042.637.14a.969.969 0 01.41.397 1.331 1.331 0 010 1.194zm-.518-.055a.837.837 0 000-1.086.785.785 0 00-.567-.194h-.315v1.474h.315a.785.785 0 00.567-.194zM26.236 7.822s5.849 2.217 5.725 5.426v5.427s-5.845-2.218-5.723-5.427l-.002-5.426zM37.173 17.404a8.002 8.002 0 013.716-1.375V14.33a7.629 7.629 0 00-3.716 3.074z"/><path d="M36.509 17.916a7.959 7.959 0 014.38-3.942V9.079s-8.33 3.158-8.154 7.728v7.726s.371-.141.955-.406c0-.247 0-.496.027-.747a8.04 8.04 0 012.792-5.465z"/><path d="M35.717 20.786a8.016 8.016 0 01.291-1.582 7.481 7.481 0 00-1.764 4.667 24.023 24.023 0 001.602-.848 7.996 7.996 0 01-.129-2.237zM36.048 20.814a7.687 7.687 0 00.103 2.026c2.276-1.367 4.833-3.48 4.735-6.033v-.223a7.455 7.455 0 00-4.33 2.031 7.652 7.652 0 00-.508 2.198z"/></symbol><symbol id="icon-client-6" viewBox="0 0 60 32"><path d="M30.485 15.415a1.155 1.155 0 01-.203-.731v-1.06c0-.325.067-.572.202-.741s.365-.253.693-.252c.308 0 .526.072.655.216a.938.938 0 01.194.634v.249h-.55v-.252a1.361 1.361 0 00-.016-.247.246.246 0 00-.079-.147.294.294 0 00-.199-.057.32.32 0 00-.21.06.285.285 0 00-.091.162 1.357 1.357 0 00-.022.262v1.287a.707.707 0 00.071.361c.027.038.065.069.11.088s.094.026.142.02c.07.005.14-.015.195-.058a.262.262 0 00.082-.156c.013-.085.019-.172.017-.258v-.261h.55v.238a1.04 1.04 0 01-.19.667c-.127.157-.342.236-.659.236s-.556-.084-.692-.259zM32.777 15.425c-.139-.165-.209-.406-.209-.724v-1.115c0-.315.069-.553.209-.715s.371-.242.697-.242c.324 0 .555.081.694.242s.21.4.21.715v1.116c0 .315-.071.557-.212.723s-.371.249-.692.249-.557-.084-.697-.248zm.954-.267a.674.674 0 00.066-.33v-1.366a.664.664 0 00-.065-.324c-.028-.039-.067-.07-.112-.089s-.096-.026-.145-.019c-.049-.007-.1 0-.146.019s-.085.05-.113.089a.639.639 0 00-.066.324v1.372a.661.661 0 00.066.33.34.34 0 00.257.111.36.36 0 00.257-.111v-.006zM35.04 12.662h.593l.446 2.058.456-2.058h.577l.058 2.971h-.426l-.045-2.065-.44 2.065h-.342l-.456-2.072-.042 2.072h-.431l.054-2.971zM37.833 12.662h.923c.532 0 .797.281.797.844 0 .539-.28.808-.84.807h-.314v1.32h-.57l.004-2.971zm.789 1.269a.41.41 0 00.313-.093.518.518 0 00.082-.335 1.024 1.024 0 00-.027-.27.231.231 0 00-.114-.142.538.538 0 00-.254-.047h-.221v.888h.221zM40.375 12.662h.612l.628 2.971h-.531l-.124-.685h-.546l-.128.685h-.539l.628-2.971zm.523 1.941l-.213-1.247-.213 1.247h.426zM42.122 12.662h.399l.763 1.695v-1.695h.473v2.971h-.379l-.768-1.769v1.769h-.489l.001-2.971zM44.865 14.5l-.635-1.834h.535l.387 1.178.364-1.178h.523l-.627 1.834v1.133h-.547V14.5zM31.365 16.931v.155H30.9v1.207h-.195v-1.207h-.467v-.155h1.127zM32.823 18.294h-.15a.064.064 0 01-.042-.013.075.075 0 01-.025-.031l-.134-.324h-.645l-.134.324a.102.102 0 01-.02.037.064.064 0 01-.042.013h-.15l.57-1.362h.198l.577 1.357zm-.944-.506h.538l-.228-.555a1.007 1.007 0 01-.042-.128l-.022.072-.02.057-.226.553zM33.805 18.16a.56.56 0 00.198-.016.596.596 0 00.082-.025l.076-.033v-.306h-.228c-.006 0-.011 0-.017-.002s-.01-.005-.014-.008-.007-.007-.009-.011-.003-.009-.003-.014v-.105h.442v.522c-.036.024-.074.046-.114.065s-.083.035-.126.046a.99.99 0 01-.142.028 1.539 1.539 0 01-.166.009.78.78 0 01-.287-.051.69.69 0 01-.228-.142.663.663 0 01-.199-.499.773.773 0 01.051-.285.633.633 0 01.375-.357.88.88 0 01.305-.051c.053 0 .106.004.158.012a.715.715 0 01.349.16l-.055.084c-.004.008-.011.014-.019.019s-.017.007-.026.007a.06.06 0 01-.035-.011.928.928 0 01-.056-.032.533.533 0 00-.181-.067.878.878 0 00-.145-.012.61.61 0 00-.22.038.467.467 0 00-.273.277.693.693 0 000 .454.502.502 0 00.28.28.574.574 0 00.226.027zM35.621 18.138h.622v.155h-.812V16.93h.195l-.005 1.207zM36.891 18.294h-.195v-1.363h.195v1.363zM37.616 16.938a.088.088 0 01.029.025l.833 1.027a.4.4 0 010-.049v-1.015h.17v1.368h-.098a.085.085 0 01-.042-.008.13.13 0 01-.031-.026l-.832-1.026v1.059h-.163V16.93h.101c.011 0 .022.002.032.006zM40.083 16.931v.15h-.691v.45h.56v.145h-.56v.465h.691v.15h-.891v-1.359h.891zM19.663 8.517l8.652 2.326v8.15l-8.652-2.325V8.517zm-.555-.695v9.242l9.761 2.625v-9.241l-9.761-2.626z"/><path d="M24.34 23.979l-9.762-2.627v-9.241l9.762 2.626v9.242z"/><path d="M19.27 8.412l8.54 2.297-3.632 3.439-8.541-2.298 3.633-3.438zm-.162-.59l-4.531 4.289 9.762 2.626 4.53-4.289-9.761-2.626zM24.889 23.459l3.98-3.769-3.98-1.071v4.84z"/></symbol><symbol id="icon-facebook" viewBox="0 0 32 32"><path d="M18.422 11.142h1.328V8.829a17.317 17.317 0 00-1.935-.102c-1.915 0-3.226 1.204-3.226 3.418v2.037h-2.113v2.585h2.113v6.505h2.59v-6.505h2.027l.322-2.585h-2.35v-1.781c.001-.747.202-1.259 1.243-1.259z"/></symbol><symbol id="icon-instagram1" viewBox="0 0 32 32"><path d="M23.258 13.004c-.034-.773-.159-1.304-.338-1.765a3.557 3.557 0 00-.841-1.29 3.589 3.589 0 00-1.287-.838c-.463-.179-.992-.304-1.764-.338-.779-.037-1.026-.046-3.001-.046s-2.222.009-2.998.043c-.773.034-1.304.159-1.764.338a3.557 3.557 0 00-1.29.841 3.589 3.589 0 00-.838 1.287c-.179.463-.304.992-.338 1.764-.037.779-.045 1.026-.045 3.001s.008 2.222.043 2.998c.034.773.159 1.304.338 1.765.185.489.472.926.841 1.29.364.369.804.656 1.287.838.463.179.992.304 1.765.338.776.034 1.023.043 2.998.043s2.222-.008 2.998-.043c.773-.034 1.304-.159 1.764-.338a3.72 3.72 0 002.128-2.128c.179-.463.304-.992.338-1.765.034-.776.043-1.023.043-2.998s-.003-2.222-.037-2.998zm-1.309 5.938c-.031.71-.151 1.094-.25 1.35a2.409 2.409 0 01-1.381 1.381c-.256.099-.642.219-1.35.25-.767.034-.997.043-2.938.043s-2.174-.008-2.938-.043c-.71-.031-1.094-.15-1.35-.25a2.228 2.228 0 01-.835-.543 2.264 2.264 0 01-.543-.835c-.099-.256-.219-.642-.25-1.35-.034-.767-.043-.997-.043-2.938s.008-2.174.043-2.938c.031-.71.151-1.094.25-1.35.117-.315.301-.602.546-.835.236-.242.52-.426.835-.543.256-.099.642-.219 1.35-.25.767-.034.997-.043 2.938-.043 1.944 0 2.174.008 2.938.043.71.031 1.094.151 1.35.25.315.116.602.301.835.543.241.236.426.52.543.835.099.256.219.642.25 1.35.034.767.043.997.043 2.938s-.009 2.168-.043 2.935z"/><path  d="M16.027 12.265a3.737 3.737 0 10.003 7.475 3.737 3.737 0 00-.003-7.475zm0 6.16a2.424 2.424 0 110-4.849 2.424 2.424 0 010 4.849zM20.784 12.117a.872.872 0 11-1.744 0 .872.872 0 011.744 0z"/></symbol><symbol id="icon-linkedin" viewBox="0 0 32 32"><path d="M23.269 23.273v-.001h.004v-5.335c0-2.61-.562-4.62-3.613-4.62-1.467 0-2.451.805-2.853 1.568h-.042v-1.324h-2.893v9.711h3.012v-4.809c0-1.266.24-2.49 1.808-2.49 1.545 0 1.568 1.445 1.568 2.572v4.728h3.009zM8.967 13.562h3.016v9.711H8.967v-9.711zM10.474 8.727c-.964 0-1.747.782-1.747 1.747s.782 1.763 1.747 1.763c.964 0 1.747-.799 1.747-1.763s-.783-1.747-1.747-1.747z"/></symbol><symbol id="icon-logo" viewBox="0 0 243 32"><path fill="var(--color3, #2196f3)" d="M13.27.947h5.283l3.328 9.776L25.209.947h5.325L25.5 14.384l3.744 9.443L37.606.864h6.24L31.824 30.4h-4.826l-5.117-12.397L16.764 30.4h-4.826L-.001.864h6.157l8.403 22.963 3.661-9.443L13.27.947zm41.737 29.869c-1.747 0-3.328-.291-4.742-.874-1.414-.61-2.621-1.428-3.619-2.454s-1.775-2.219-2.33-3.578a11.746 11.746 0 01-.79-4.285c0-1.553.264-3.009.79-4.368a10.45 10.45 0 012.288-3.619c.998-1.054 2.205-1.886 3.619-2.496 1.442-.61 3.051-.915 4.826-.915s3.356.305 4.742.915c1.414.61 2.607 1.428 3.578 2.454a10.033 10.033 0 012.246 3.578c.527 1.359.79 2.773.79 4.243 0 .36-.014.707-.042 1.04 0 .333-.028.61-.083.832H49.432c.083.86.291 1.622.624 2.288s.763 1.234 1.29 1.706 1.123.832 1.789 1.082 1.359.374 2.08.374a6.452 6.452 0 003.12-.79c.998-.555 1.678-1.276 2.038-2.163l4.784 1.331c-.804 1.664-2.094 3.037-3.869 4.118-1.747 1.054-3.841 1.581-6.282 1.581zm5.657-13.146c-.139-1.636-.749-2.94-1.83-3.91-1.054-.998-2.344-1.498-3.869-1.498a5.47 5.47 0 00-2.122.416c-.638.25-1.206.61-1.706 1.082s-.915 1.04-1.248 1.706a6.297 6.297 0 00-.541 2.205h11.315zm22.782 13.146c-1.664 0-3.148-.374-4.451-1.123s-2.33-1.775-3.078-3.078v3.786H71.05V.033h5.574V12.43c.776-1.331 1.789-2.357 3.037-3.078 1.276-.749 2.759-1.123 4.451-1.123 1.414 0 2.704.305 3.869.915s2.163 1.428 2.995 2.454c.86 1.026 1.511 2.233 1.955 3.619.471 1.387.707 2.843.707 4.368 0 1.581-.264 3.051-.79 4.41a11.011 11.011 0 01-2.122 3.578c-.915.998-1.997 1.789-3.245 2.371s-2.593.874-4.035.874zm-1.539-4.742c.887 0 1.706-.166 2.454-.499.749-.36 1.387-.832 1.914-1.414s.929-1.262 1.206-2.038c.305-.776.458-1.608.458-2.496s-.139-1.733-.416-2.538a6.425 6.425 0 00-1.206-2.122c-.499-.61-1.096-1.095-1.789-1.456s-1.456-.541-2.288-.541c-1.248 0-2.371.416-3.37 1.248a8.044 8.044 0 00-2.246 2.995v5.2c.194.555.471 1.054.832 1.498.388.444.818.832 1.29 1.165.471.305.984.555 1.539.749.555.166 1.095.25 1.622.25z"/><path fill="var(--color4, #000)" d="M128.042 8.602c-.194-.194-.555-.458-1.082-.79-.499-.333-1.123-.652-1.872-.957-.721-.333-1.512-.61-2.371-.832s-1.733-.333-2.621-.333c-1.581 0-2.76.291-3.536.874s-1.165 1.401-1.165 2.454c0 .61.139 1.123.416 1.539.305.388.735.735 1.29 1.04s1.248.582 2.08.832c.86.25 1.844.513 2.954.79 1.442.388 2.746.804 3.91 1.248 1.192.444 2.191.998 2.995 1.664a6.73 6.73 0 011.914 2.413c.444.915.666 2.052.666 3.411 0 1.581-.305 2.94-.915 4.077a7.312 7.312 0 01-2.413 2.704c-.998.693-2.163 1.206-3.494 1.539a18.027 18.027 0 01-4.118.458c-2.219 0-4.41-.333-6.573-.998s-4.105-1.608-5.824-2.829l2.538-4.95c.25.25.693.582 1.331.998.666.388 1.442.79 2.33 1.206.887.388 1.872.721 2.954.998s2.191.416 3.328.416c3.162 0 4.742-1.012 4.742-3.037 0-.638-.18-1.179-.541-1.622s-.874-.832-1.539-1.165-1.47-.638-2.413-.915c-.943-.277-1.997-.582-3.162-.915-1.414-.388-2.649-.804-3.702-1.248-1.026-.472-1.886-1.012-2.579-1.622a6.604 6.604 0 01-1.581-2.163c-.333-.832-.499-1.817-.499-2.954 0-1.498.277-2.829.832-3.994s1.317-2.135 2.288-2.912c.998-.777 2.149-1.359 3.453-1.747 1.303-.416 2.704-.624 4.202-.624 2.08 0 3.994.333 5.741.998 1.747.638 3.272 1.401 4.576 2.288l-2.538 4.659zm21.442 20.675c-.749.333-1.664.666-2.746.998s-2.219.499-3.411.499a8.155 8.155 0 01-2.205-.291 5.206 5.206 0 01-1.789-.915 4.95 4.95 0 01-1.206-1.664c-.305-.693-.458-1.525-.458-2.496V12.886h-2.87V8.601h2.87V1.529h5.574v7.072h4.576v4.285h-4.576v10.65c0 .776.194 1.331.582 1.664.416.305.915.458 1.498.458s1.151-.097 1.706-.291c.555-.194.998-.36 1.331-.499l1.123 4.41zm10.807 1.539c-2.247 0-3.952-.721-5.117-2.163s-1.747-3.578-1.747-6.406V8.602h5.574V21.04c0 3.356 1.207 5.034 3.619 5.034 1.082 0 2.122-.319 3.12-.957 1.026-.666 1.858-1.664 2.496-2.995V8.602h5.574v15.392c0 .582.098.998.291 1.248.222.25.568.388 1.04.416V30.4a11.687 11.687 0 01-2.412.25c-.998 0-1.816-.222-2.454-.666-.61-.472-.971-1.109-1.082-1.914l-.125-1.747c-.971 1.498-2.219 2.621-3.744 3.37s-3.203 1.123-5.034 1.123zm29.335 0c-1.498 0-2.885-.291-4.16-.874s-2.371-1.387-3.286-2.413a11.627 11.627 0 01-2.163-3.578c-.499-1.387-.749-2.87-.749-4.451s.235-3.051.707-4.41c.499-1.359 1.179-2.551 2.038-3.578s1.886-1.83 3.078-2.413c1.192-.582 2.496-.874 3.91-.874 1.608 0 3.051.388 4.326 1.165 1.304.777 2.315 1.789 3.037 3.037V.03h5.574v23.962c0 .582.098.998.291 1.248s.526.388.998.416v4.742c-.971.194-1.762.291-2.371.291-.998 0-1.816-.25-2.454-.749s-.998-1.151-1.082-1.955l-.125-1.373c-.805 1.387-1.899 2.44-3.286 3.162a9.306 9.306 0 01-4.285 1.04zm1.456-4.742c.526 0 1.067-.083 1.622-.25a6.238 6.238 0 002.787-1.955c.389-.444.68-.929.874-1.456v-5.2a5.537 5.537 0 00-.957-1.664 5.684 5.684 0 00-1.373-1.331 6.271 6.271 0 00-1.622-.915 4.449 4.449 0 00-1.664-.333c-.832 0-1.608.18-2.33.541a5.45 5.45 0 00-1.789 1.498c-.499.61-.888 1.317-1.165 2.122s-.416 1.636-.416 2.496c0 .915.152 1.761.458 2.538s.722 1.456 1.248 2.038a5.732 5.732 0 001.872 1.373 5.969 5.969 0 002.454.499zm17.577 4.326V8.602h5.574V30.4h-5.574zm0-24.835V.032h5.574v5.533h-5.574zm21.919 25.251c-1.774 0-3.37-.305-4.784-.915s-2.621-1.428-3.619-2.454c-.971-1.054-1.72-2.26-2.246-3.619s-.79-2.787-.79-4.285c0-1.525.264-2.968.79-4.326s1.275-2.551 2.246-3.578c.998-1.054 2.205-1.886 3.619-2.496s3.01-.915 4.784-.915 3.355.305 4.742.915c1.414.61 2.606 1.442 3.578 2.496.998 1.026 1.762 2.219 2.288 3.578s.79 2.801.79 4.326c0 1.498-.264 2.926-.79 4.285s-1.275 2.565-2.246 3.619c-.971 1.026-2.163 1.844-3.578 2.454s-3.01.915-4.784.915zm-5.7-11.274c0 .971.139 1.858.416 2.662a7.103 7.103 0 001.206 2.038 5.895 5.895 0 001.83 1.373c.693.305 1.442.458 2.246.458s1.554-.152 2.246-.458a5.417 5.417 0 001.789-1.373 5.94 5.94 0 001.206-2.08c.306-.804.458-1.692.458-2.662 0-.943-.152-1.816-.458-2.621a5.956 5.956 0 00-1.206-2.08 4.966 4.966 0 00-1.789-1.331c-.693-.333-1.442-.499-2.246-.499s-1.554.166-2.246.499a5.868 5.868 0 00-1.83 1.373c-.499.582-.901 1.276-1.206 2.08a7.998 7.998 0 00-.416 2.621z"/></symbol><symbol id="icon-mail" viewBox="0 0 43 32"><path d="M38.667.334H4c-2.206 0-4 1.675-4 3.734v22.404c0 2.059 1.794 3.734 4 3.734h34.667c2.206 0 4-1.675 4-3.734V4.068c0-2.059-1.794-3.734-4-3.734zm0 2.489c.181 0 .353.035.511.096L21.334 17.356 3.49 2.919c.158-.061.33-.096.511-.096h34.667zm0 24.893H4c-.736 0-1.333-.558-1.333-1.245V5.549L20.46 19.944c.251.203.563.304.874.304s.622-.101.874-.304L40.001 5.549v20.922c0 .687-.598 1.244-1.333 1.244z"/></symbol><symbol id="icon-smartphone" viewBox="0 0 21 32"><path d="M18.133.13H3.2C1.435.13 0 1.47 0 3.117v25.889c0 1.647 1.435 2.987 3.2 2.987h14.933c1.765 0 3.2-1.34 3.2-2.987V3.117c0-1.647-1.435-2.987-3.2-2.987zM3.2 2.121h14.933c.589 0 1.067.446 1.067.996v20.91H2.133V3.117c0-.549.478-.996 1.067-.996zm14.933 27.881H3.2c-.589 0-1.067-.446-1.067-.996v-2.987H19.2v2.987c0 .549-.478.996-1.067.996z"/><path d="M5.021 27.306c.417.389.417 1.02 0 1.409s-1.092.389-1.508 0c-.417-.389-.417-1.02 0-1.409s1.092-.389 1.508 0z"/></symbol><symbol id="icon-twitter" viewBox="0 0 32 32"><path d="M23.273 11.49a6.248 6.248 0 01-1.718.471 2.967 2.967 0 001.312-1.648 5.963 5.963 0 01-1.891.722 2.981 2.981 0 00-5.158 2.039c0 .236.02.464.069.68a8.439 8.439 0 01-6.146-3.119 2.985 2.985 0 00.917 3.985 2.943 2.943 0 01-1.347-.367v.033a2.996 2.996 0 002.389 2.93 2.992 2.992 0 01-.782.098 2.64 2.64 0 01-.565-.051 3.01 3.01 0 002.786 2.077 5.991 5.991 0 01-3.697 1.272 5.59 5.59 0 01-.714-.041 8.393 8.393 0 004.575 1.338c5.487 0 8.487-4.545 8.487-8.485 0-.132-.005-.259-.011-.385a5.95 5.95 0 001.495-1.548z"/></symbol> <symbol id="icon-clouse" viewBox="0 0 11 11"><path d="M11 1.108L9.892 0 5.5 4.392 1.108 0 0 1.108 4.392 5.5 0 9.892 1.108 11 5.5 6.608 9.892 11 11 9.892 6.608 5.5 11 1.108z"/></symbol><symbol id="icon-telephone" viewBox="0 0 32 32"><path d="M27.419 20.853l-4.201-.48a3.28 3.28 0 00-2.713.941l-3.045 3.045c-4.718-2.435-8.467-6.185-10.835-10.764l-.065-.139L9.623 10.4a3.282 3.282 0 00.942-2.729l.002.016-.48-4.169A3.314 3.314 0 006.8.592H3.932C2.062.587.508 2.142.622 4.009 1.5 18.135 12.796 29.417 26.908 30.295c1.867.114 3.424-1.44 3.424-3.31v-2.862-.016a3.279 3.279 0 00-2.897-3.256l-.015-.001z"/></symbol><symbol id="icon-name" viewBox="0 0 32 32"><path d="M16 16a8 8 0 000-16 8 8 0 000 16zm0 4c-5.339 0-16 2.68-16 8v2c0 1.099.901 2 2 2h28c1.099 0 2-.901 2-2v-2c0-5.32-10.661-8-16-8z"/></symbol><symbol id="icon-mail2" viewBox="0 0 43 32"><path d="M37.333 0h-32c-2.2 0-3.981 1.8-3.981 4l-.019 24c0 2.2 1.8 4 4 4h32c2.2 0 4-1.8 4-4V4c0-2.2-1.8-4-4-4zm-.8 8.501l-14.139 8.837a2.02 2.02 0 01-2.129-.005l.009.005-14.141-8.84A1.7 1.7 0 117.94 5.621l-.006-.004 13.4 8.381 13.4-8.381a1.7 1.7 0 111.808 2.876l-.008.004z"/></symbol><symbol id="icon-check" viewBox="0 0 34 32"><path stroke="var(#fff)" stroke-width=".427" d="M8.442 16.537l-.147-.14-2.205 2.088 7.767 7.41 16.318-15.567-2.19-2.089-14.128 13.465-5.416-5.167z"/></symbol></defs><defs><symbol id="icon-close_40px" viewBox="0 0 32 32"><path d="M23.734 10.304L22.23 8.8l-5.963 5.962L10.305 8.8l-1.504 1.504 5.962 5.962-5.962 5.963 1.504 1.504 5.962-5.963 5.963 5.963 1.504-1.504-5.963-5.963 5.963-5.962z"/></symbol><symbol id="icon-menu_40px" viewBox="0 0 32 32"><path d="M6.4 11.734V9.6h19.2v2.134H6.4zm0 5.332h19.2v-2.133H6.4v2.133zm0 5.334h19.2v-2.134H6.4V22.4z"/></symbol></defs></svg>